<svg width="45" height="51" viewBox="0 0 45 51" fill="none" xmlns="http://www.w3.org/2000/svg">
<g id="Group 367">
<path id="Vector 1" d="M44.8265 8.03191L21.8265 21.5319C11.8262 18.0317 2.82701 13.5317 7.82654 7.03169C12.8263 2.03203 22.8265 9.53214 23.8265 8.53214C23.8265 8.53214 25.327 5.53201 29.3265 0.0319087C36.327 -0.468217 41.9932 5.03191 44.8265 8.03191Z" fill="#42B4EE"/>
<path id="Vector 2" d="M0.402995 20.5C7.903 22.8333 22.103 29.3 18.903 36.5C11.9033 44 -2.59653 37.5 0.402995 20.5Z" fill="#42B4EE"/>
<path id="Vector 3" d="M29.4023 35C27.0023 42.6 16.069 45.5 10.9023 46C23.7023 56.0001 37.9023 48.1667 43.4023 43C39.7357 37.1667 37.4023 40 29.4023 35Z" fill="#42B4EE"/>
</g>
</svg>
