<svg width="53" height="59" viewBox="0 0 53 59" fill="none" xmlns="http://www.w3.org/2000/svg">
<g filter="url(#filter0_d_51_1816)">
<path d="M48.8265 8.03191L25.8265 21.5319C15.8262 18.0317 6.82701 13.5317 11.8265 7.03169C16.8263 2.03203 26.8265 9.53214 27.8265 8.53214C27.8265 8.53214 29.327 5.53201 33.3265 0.0319087C40.327 -0.468217 45.9932 5.03191 48.8265 8.03191Z" fill="#42B4EE"/>
<path d="M4.403 20.5C11.903 22.8333 26.103 29.3 22.903 36.5C15.9033 44 1.40347 37.5 4.403 20.5Z" fill="#42B4EE"/>
<path d="M33.4023 35C31.0023 42.6 20.069 45.5 14.9023 46C27.7023 56.0001 41.9023 48.1667 47.4023 43C43.7357 37.1667 41.4023 40 33.4023 35Z" fill="#42B4EE"/>
</g>
<defs>
<filter id="filter0_d_51_1816" x="0" y="0" width="52.8262" height="58.8252" filterUnits="userSpaceOnUse" color-interpolation-filters="sRGB">
<feFlood flood-opacity="0" result="BackgroundImageFix"/>
<feColorMatrix in="SourceAlpha" type="matrix" values="0 0 0 0 0 0 0 0 0 0 0 0 0 0 0 0 0 0 127 0" result="hardAlpha"/>
<feOffset dy="4"/>
<feGaussianBlur stdDeviation="2"/>
<feComposite in2="hardAlpha" operator="out"/>
<feColorMatrix type="matrix" values="0 0 0 0 0 0 0 0 0 0 0 0 0 0 0 0 0 0 0.25 0"/>
<feBlend mode="normal" in2="BackgroundImageFix" result="effect1_dropShadow_51_1816"/>
<feBlend mode="normal" in="SourceGraphic" in2="effect1_dropShadow_51_1816" result="shape"/>
</filter>
</defs>
</svg>
