<svg width="41" height="41" viewBox="0 0 41 41" fill="none" xmlns="http://www.w3.org/2000/svg">
<path d="M23.7996 18.1992C24.9135 18.1992 25.9818 18.6417 26.7695 19.4294C27.5571 20.217 27.9996 21.2853 27.9996 22.3992V27.2992H25.1996V22.3992C25.1996 22.0279 25.0521 21.6718 24.7896 21.4093C24.527 21.1467 24.1709 20.9992 23.7996 20.9992C23.4283 20.9992 23.0722 21.1467 22.8097 21.4093C22.5471 21.6718 22.3996 22.0279 22.3996 22.3992V27.2992H19.5996V22.3992C19.5996 21.2853 20.0421 20.217 20.8298 19.4294C21.6174 18.6417 22.6857 18.1992 23.7996 18.1992V18.1992Z" stroke="white" stroke-linecap="round" stroke-linejoin="round"/>
<path d="M16.8 18.9004H14V27.3004H16.8V18.9004Z" stroke="white" stroke-linecap="round" stroke-linejoin="round"/>
<path d="M15.4 16.8C16.1732 16.8 16.8 16.1732 16.8 15.4C16.8 14.6268 16.1732 14 15.4 14C14.6268 14 14 14.6268 14 15.4C14 16.1732 14.6268 16.8 15.4 16.8Z" stroke="white" stroke-linecap="round" stroke-linejoin="round"/>
<circle opacity="0.1" cx="20.5" cy="20.5" r="20" stroke="white"/>
</svg>
