<svg width="41" height="41" viewBox="0 0 41 41" fill="none" xmlns="http://www.w3.org/2000/svg">
<circle opacity="0.1" cx="20.5" cy="20.5" r="20" stroke="white"/>
<path d="M27.3341 15.0401C26.6797 15.5017 25.9552 15.8547 25.1884 16.0856C24.7769 15.6124 24.23 15.277 23.6216 15.1248C23.0132 14.9725 22.3728 15.0108 21.7869 15.2345C21.201 15.4581 20.6979 15.8562 20.3457 16.3751C19.9934 16.894 19.809 17.5085 19.8174 18.1356V18.8189C18.6166 18.85 17.4267 18.5837 16.3536 18.0436C15.2806 17.5035 14.3578 16.7065 13.6674 15.7234C13.6674 15.7234 10.9341 21.8734 17.0841 24.6067C15.6768 25.562 14.0003 26.041 12.3008 25.9734C18.4508 29.3901 25.9674 25.9734 25.9674 18.1151C25.9668 17.9247 25.9485 17.7349 25.9128 17.5479C26.6102 16.8601 27.1023 15.9918 27.3341 15.0401V15.0401Z" stroke="white" stroke-width="1.36667" stroke-linecap="round" stroke-linejoin="round"/>
</svg>
