<svg width="41" height="41" viewBox="0 0 41 41" fill="none" xmlns="http://www.w3.org/2000/svg">
<circle opacity="0.1" cx="20.5" cy="20.5" r="20" stroke="white"/>
<path d="M23.916 13.667H17.0827C15.1957 13.667 13.666 15.1967 13.666 17.0837V23.917C13.666 25.804 15.1957 27.3337 17.0827 27.3337H23.916C25.803 27.3337 27.3327 25.804 27.3327 23.917V17.0837C27.3327 15.1967 25.803 13.667 23.916 13.667Z" stroke="white" stroke-width="1.36667" stroke-linecap="round" stroke-linejoin="round"/>
<path d="M23.232 20.0697C23.3164 20.6384 23.2192 21.2192 22.9544 21.7295C22.6896 22.2398 22.2707 22.6537 21.7571 22.9121C21.2436 23.1706 20.6616 23.2606 20.094 23.1693C19.5264 23.0779 19.002 22.8099 18.5955 22.4034C18.189 21.9969 17.921 21.4725 17.8296 20.9049C17.7383 20.3373 17.8283 19.7553 18.0867 19.2418C18.3452 18.7282 18.7591 18.3093 19.2694 18.0445C19.7797 17.7797 20.3605 17.6825 20.9292 17.7669C21.5093 17.8529 22.0463 18.1232 22.461 18.5379C22.8757 18.9526 23.146 19.4896 23.232 20.0697Z" stroke="white" stroke-width="1.36667" stroke-linecap="round" stroke-linejoin="round"/>
<path d="M24.2578 16.7412H24.2643" stroke="white" stroke-width="1.36667" stroke-linecap="round" stroke-linejoin="round"/>
</svg>
